<svg version="1" xmlns="http://www.w3.org/2000/svg" width="346.667" height="346.667" viewBox="0 0 260.000000 260.000000"><path d="M0 130v130h260V0H0v130zM232.5 29c.4.6.3 1.6-.3 2.3-.8 1.1-2.9 5.1-17.1 31.9-2.8 5.4-7.4 14.2-10.2 19.5-2.8 5.4-6.6 12.5-8.4 15.8-1.8 3.3-6.1 11.4-9.5 18-12.4 23.7-17.3 33.1-20 38-2.9 5.1-8 14.8-20.3 38.5-3.9 7.4-8.9 16.9-11.1 21-2.3 4.1-5.2 9.6-6.5 12.2l-2.4 4.8H86l-1-2.5c-.5-1.4-2.3-3.2-3.9-3.8-2.6-1.1-2.8-1.4-1.3-2.3 2-1.3 17.8-.1 23 1.7 2.2.7 3.7.8 4.4.1 1.1-1.1-6.9-4.7-12.9-5.7-4.2-.7-6-2.5-2.5-2.5 1 0 2.7-.6 3.7-1.4 1.7-1.2 1.6-1.4-2.1-3.1-2.1-.9-4.7-2.1-5.6-2.6-1-.5-2.7-.9-3.7-.9-1.1 0-3-.4-4.3-.9-1.3-.5-4.8-1.4-7.8-2-3-.5-8.3-1.5-11.7-2.2-5.6-1-6.3-1.5-7.2-4.2-.6-1.6-1.1-4.3-1.1-5.8 0-1.6-.4-4.8-1-7.1-.5-2.4-1.4-7.5-2-11.3-1.6-10.4-3-18.3-4.2-24.4-1-5.1-.9-5.5 1.3-7.2 1.3-1 3.3-2 4.4-2.2 1.1-.3.1-.3-2.3-.2-2.3.1-4.4 0-4.7-.4-.5-.9-7.5-43.6-7.5-46 0-2.3 1.9-3.1 7.1-3.1 2.8 0 5.1-.8 7.3-2.5 1.8-1.4 4.6-2.5 6.3-2.5 2.6 0 12.1-5.3 14.3-7.9.3-.3 2.4-1.6 4.6-2.8 3.8-2.1 4.4-2.2 7.1-.8 1.7.8 5.2 1.8 7.9 2.1 2.7.4 5.5 1.3 6.2 2.2.6.9 1.2 4.1 1.2 7.1 0 3.1.4 8.3 1 11.6.5 3.3 1 10.7 1.2 16.5.1 5.8.5 10.9.9 11.5.3.5.9 5 1.3 10 1.3 18.6 1.9 24.5 2.6 24.5.3 0 1.7-2.4 2.9-5.3 2.6-6 4.8-10.8 10.3-22.7 2.2-4.7 4.7-10.1 5.5-12 .9-1.9 2.6-5.8 3.8-8.5 1.3-2.8 3.1-6.8 4.1-9 .9-2.2 3.9-8.6 6.6-14.3 2.6-5.7 4.8-10.5 4.8-10.7 0-.4 3.5-8.1 9-20 1.5-3.3 3.8-8.3 5-11 5.5-12.4 7.3-16.1 8.2-17.3 1.4-1.6 66.3-1.8 67.3-.2zM89 215c0 .5-.7 1-1.6 1-.8 0-1.2-.5-.9-1 .3-.6 1-1 1.6-1 .5 0 .9.4.9 1z"/><path d="M91 126c0 .5.7 1 1.5 1s1.5-.5 1.5-1c0-.6-.7-1-1.5-1s-1.5.4-1.5 1z"/></svg>